<svg width="43" height="55" viewBox="0 0 43 55" fill="none" xmlns="http://www.w3.org/2000/svg">
<path d="M3.03766 28.0133C-5.4785 42.0933 5.92618 51.6756 12.5997 55C7.51985 49.2801 6.77282 45.76 10.0598 38.28C10.8068 41.5068 11.1056 44.0001 17.5301 45.76C15.1396 42.3868 12.1515 31.8268 21.5641 19.8C16.4842 28.3068 32.1719 39.16 30.6778 47.5201C33.666 45.9068 33.8154 40.6268 33.2178 39.16C35.7577 40.4801 36.9529 50.6694 30.9767 55C50.1007 44.4401 41.7339 25.6668 37.4011 21.7067C37.4011 29.6267 34.579 33.8801 34.8612 32.4133C37.4011 19.2134 26.4945 3.37342 19.6218 0C22.9087 9.9734 4.08351 19.0667 4.08351 36.8133C2.83845 34.3689 2.14122 30.9467 3.03766 28.0133Z" fill="url(#paint0_linear_18_199)"/>
<defs>
<linearGradient id="paint0_linear_18_199" x1="21.5" y1="0" x2="21.5" y2="55" gradientUnits="userSpaceOnUse">
<stop stop-color="#E9B120"/>
<stop offset="1" stop-color="#FCE504" stop-opacity="0"/>
</linearGradient>
</defs>
</svg>
