<svg width="172" height="58" viewBox="0 0 172 58" fill="none" xmlns="http://www.w3.org/2000/svg">
<path d="M10.304 31.224C8.55467 31.224 6.99733 30.8507 5.632 30.104C4.26667 29.336 3.18933 28.2907 2.4 26.968C1.61067 25.6453 1.216 24.1413 1.216 22.456C1.216 20.7493 1.61067 19.2453 2.4 17.944C3.18933 16.6213 4.26667 15.5867 5.632 14.84C6.99733 14.0933 8.55467 13.72 10.304 13.72C12.0747 13.72 13.6427 14.0933 15.008 14.84C16.3947 15.5867 17.472 16.6107 18.24 17.912C19.0293 19.2133 19.424 20.728 19.424 22.456C19.424 24.1413 19.0293 25.6453 18.24 26.968C17.472 28.2907 16.3947 29.336 15.008 30.104C13.6427 30.8507 12.0747 31.224 10.304 31.224ZM10.304 27.8C11.2853 27.8 12.16 27.5867 12.928 27.16C13.696 26.7333 14.2933 26.1147 14.72 25.304C15.168 24.4933 15.392 23.544 15.392 22.456C15.392 21.3467 15.168 20.3973 14.72 19.608C14.2933 18.7973 13.696 18.1787 12.928 17.752C12.16 17.3253 11.296 17.112 10.336 17.112C9.35467 17.112 8.48 17.3253 7.712 17.752C6.96533 18.1787 6.368 18.7973 5.92 19.608C5.472 20.3973 5.248 21.3467 5.248 22.456C5.248 23.544 5.472 24.4933 5.92 25.304C6.368 26.1147 6.96533 26.7333 7.712 27.16C8.48 27.5867 9.344 27.8 10.304 27.8ZM30.993 37.432C29.4143 37.432 27.8677 37.2187 26.353 36.792C24.8597 36.3867 23.633 35.7893 22.673 35L24.465 31.992C25.2117 32.6107 26.1503 33.1013 27.281 33.464C28.433 33.848 29.5957 34.04 30.769 34.04C32.6463 34.04 34.0223 33.6027 34.897 32.728C35.7717 31.8747 36.209 30.584 36.209 28.856V25.816L36.529 21.944L36.401 18.072V13.912H40.209V28.408C40.209 31.5013 39.4197 33.7733 37.841 35.224C36.2623 36.696 33.9797 37.432 30.993 37.432ZM30.481 30.232C28.8597 30.232 27.3877 29.8907 26.065 29.208C24.7637 28.504 23.729 27.5333 22.961 26.296C22.2143 25.0587 21.841 23.608 21.841 21.944C21.841 20.3013 22.2143 18.8613 22.961 17.624C23.729 16.3867 24.7637 15.4267 26.065 14.744C27.3877 14.0613 28.8597 13.72 30.481 13.72C31.9317 13.72 33.233 14.008 34.385 14.584C35.537 15.16 36.4543 16.056 37.137 17.272C37.841 18.488 38.193 20.0453 38.193 21.944C38.193 23.8427 37.841 25.4107 37.137 26.648C36.4543 27.864 35.537 28.7707 34.385 29.368C33.233 29.944 31.9317 30.232 30.481 30.232ZM31.089 26.84C32.0917 26.84 32.9877 26.6373 33.777 26.232C34.5663 25.8053 35.1743 25.2293 35.601 24.504C36.049 23.7573 36.273 22.904 36.273 21.944C36.273 20.984 36.049 20.1413 35.601 19.416C35.1743 18.6693 34.5663 18.104 33.777 17.72C32.9877 17.3147 32.0917 17.112 31.089 17.112C30.0863 17.112 29.1797 17.3147 28.369 17.72C27.5797 18.104 26.961 18.6693 26.513 19.416C26.0863 20.1413 25.873 20.984 25.873 21.944C25.873 22.904 26.0863 23.7573 26.513 24.504C26.961 25.2293 27.5797 25.8053 28.369 26.232C29.1797 26.6373 30.0863 26.84 31.089 26.84ZM53.2118 37.432C51.6331 37.432 50.0864 37.2187 48.5718 36.792C47.0784 36.3867 45.8518 35.7893 44.8918 35L46.6838 31.992C47.4304 32.6107 48.3691 33.1013 49.4998 33.464C50.6518 33.848 51.8144 34.04 52.9878 34.04C54.8651 34.04 56.2411 33.6027 57.1158 32.728C57.9904 31.8747 58.4278 30.584 58.4278 28.856V25.816L58.7478 21.944L58.6198 18.072V13.912H62.4278V28.408C62.4278 31.5013 61.6384 33.7733 60.0598 35.224C58.4811 36.696 56.1984 37.432 53.2118 37.432ZM52.6998 30.232C51.0784 30.232 49.6064 29.8907 48.2838 29.208C46.9824 28.504 45.9478 27.5333 45.1798 26.296C44.4331 25.0587 44.0598 23.608 44.0598 21.944C44.0598 20.3013 44.4331 18.8613 45.1798 17.624C45.9478 16.3867 46.9824 15.4267 48.2838 14.744C49.6064 14.0613 51.0784 13.72 52.6998 13.72C54.1504 13.72 55.4518 14.008 56.6038 14.584C57.7558 15.16 58.6731 16.056 59.3558 17.272C60.0598 18.488 60.4118 20.0453 60.4118 21.944C60.4118 23.8427 60.0598 25.4107 59.3558 26.648C58.6731 27.864 57.7558 28.7707 56.6038 29.368C55.4518 29.944 54.1504 30.232 52.6998 30.232ZM53.3078 26.84C54.3104 26.84 55.2064 26.6373 55.9958 26.232C56.7851 25.8053 57.3931 25.2293 57.8198 24.504C58.2678 23.7573 58.4918 22.904 58.4918 21.944C58.4918 20.984 58.2678 20.1413 57.8198 19.416C57.3931 18.6693 56.7851 18.104 55.9958 17.72C55.2064 17.3147 54.3104 17.112 53.3078 17.112C52.3051 17.112 51.3984 17.3147 50.5878 17.72C49.7984 18.104 49.1798 18.6693 48.7318 19.416C48.3051 20.1413 48.0918 20.984 48.0918 21.944C48.0918 22.904 48.3051 23.7573 48.7318 24.504C49.1798 25.2293 49.7984 25.8053 50.5878 26.232C51.3984 26.6373 52.3051 26.84 53.3078 26.84ZM75.7185 31.224C73.8198 31.224 72.1558 30.8507 70.7265 30.104C69.3185 29.336 68.2198 28.2907 67.4305 26.968C66.6625 25.6453 66.2785 24.1413 66.2785 22.456C66.2785 20.7493 66.6518 19.2453 67.3985 17.944C68.1665 16.6213 69.2118 15.5867 70.5345 14.84C71.8785 14.0933 73.4038 13.72 75.1105 13.72C76.7745 13.72 78.2572 14.0827 79.5585 14.808C80.8598 15.5333 81.8838 16.5573 82.6305 17.88C83.3772 19.2027 83.7505 20.76 83.7505 22.552C83.7505 22.7227 83.7398 22.9147 83.7185 23.128C83.7185 23.3413 83.7078 23.544 83.6865 23.736H69.4465V21.08H81.5745L80.0065 21.912C80.0278 20.9307 79.8252 20.0667 79.3985 19.32C78.9718 18.5733 78.3852 17.9867 77.6385 17.56C76.9132 17.1333 76.0705 16.92 75.1105 16.92C74.1292 16.92 73.2652 17.1333 72.5185 17.56C71.7932 17.9867 71.2172 18.584 70.7905 19.352C70.3852 20.0987 70.1825 20.984 70.1825 22.008V22.648C70.1825 23.672 70.4172 24.5787 70.8865 25.368C71.3558 26.1573 72.0172 26.7653 72.8705 27.192C73.7238 27.6187 74.7052 27.832 75.8145 27.832C76.7745 27.832 77.6385 27.6827 78.4065 27.384C79.1745 27.0853 79.8572 26.616 80.4545 25.976L82.5985 28.44C81.8305 29.336 80.8598 30.0293 79.6865 30.52C78.5345 30.9893 77.2118 31.224 75.7185 31.224ZM94.0248 31.224C92.1474 31.224 90.6968 30.744 89.6727 29.784C88.6488 28.8027 88.1368 27.3627 88.1368 25.464V10.136H92.1368V25.368C92.1368 26.1787 92.3394 26.808 92.7448 27.256C93.1714 27.704 93.7581 27.928 94.5048 27.928C95.4008 27.928 96.1474 27.6933 96.7448 27.224L97.8648 30.072C97.3954 30.456 96.8194 30.744 96.1368 30.936C95.4541 31.128 94.7501 31.224 94.0248 31.224ZM85.3208 17.24V14.04H96.7128V17.24H85.3208ZM107.181 31.224C105.304 31.224 103.853 30.744 102.829 29.784C101.805 28.8027 101.293 27.3627 101.293 25.464V10.136H105.293V25.368C105.293 26.1787 105.496 26.808 105.901 27.256C106.328 27.704 106.914 27.928 107.661 27.928C108.557 27.928 109.304 27.6933 109.901 27.224L111.021 30.072C110.552 30.456 109.976 30.744 109.293 30.936C108.61 31.128 107.906 31.224 107.181 31.224ZM98.477 17.24V14.04H109.869V17.24H98.477ZM121.429 31.224C119.68 31.224 118.122 30.8507 116.757 30.104C115.392 29.336 114.314 28.2907 113.525 26.968C112.736 25.6453 112.341 24.1413 112.341 22.456C112.341 20.7493 112.736 19.2453 113.525 17.944C114.314 16.6213 115.392 15.5867 116.757 14.84C118.122 14.0933 119.68 13.72 121.429 13.72C123.2 13.72 124.768 14.0933 126.133 14.84C127.52 15.5867 128.597 16.6107 129.365 17.912C130.154 19.2133 130.549 20.728 130.549 22.456C130.549 24.1413 130.154 25.6453 129.365 26.968C128.597 28.2907 127.52 29.336 126.133 30.104C124.768 30.8507 123.2 31.224 121.429 31.224ZM121.429 27.8C122.41 27.8 123.285 27.5867 124.053 27.16C124.821 26.7333 125.418 26.1147 125.845 25.304C126.293 24.4933 126.517 23.544 126.517 22.456C126.517 21.3467 126.293 20.3973 125.845 19.608C125.418 18.7973 124.821 18.1787 124.053 17.752C123.285 17.3253 122.421 17.112 121.461 17.112C120.48 17.112 119.605 17.3253 118.837 17.752C118.09 18.1787 117.493 18.7973 117.045 19.608C116.597 20.3973 116.373 21.3467 116.373 22.456C116.373 23.544 116.597 24.4933 117.045 25.304C117.493 26.1147 118.09 26.7333 118.837 27.16C119.605 27.5867 120.469 27.8 121.429 27.8Z" fill="white"/>
<path d="M5.152 51.096C4.288 51.096 3.51467 50.9093 2.832 50.536C2.16 50.1627 1.632 49.6507 1.248 49C0.864 48.3493 0.672 47.6027 0.672 46.76C0.672 45.9173 0.864 45.1707 1.248 44.52C1.632 43.8693 2.16 43.3627 2.832 43C3.51467 42.6267 4.288 42.44 5.152 42.44C5.92 42.44 6.60267 42.5947 7.2 42.904C7.808 43.2027 8.27733 43.6507 8.608 44.248L7.44 45C7.16267 44.584 6.82133 44.28 6.416 44.088C6.02133 43.8853 5.59467 43.784 5.136 43.784C4.58133 43.784 4.08533 43.9067 3.648 44.152C3.21067 44.3973 2.864 44.744 2.608 45.192C2.352 45.6293 2.224 46.152 2.224 46.76C2.224 47.368 2.352 47.896 2.608 48.344C2.864 48.792 3.21067 49.1387 3.648 49.384C4.08533 49.6293 4.58133 49.752 5.136 49.752C5.59467 49.752 6.02133 49.656 6.416 49.464C6.82133 49.2613 7.16267 48.952 7.44 48.536L8.608 49.272C8.27733 49.8587 7.808 50.312 7.2 50.632C6.60267 50.9413 5.92 51.096 5.152 51.096ZM15.0153 42.44C15.7086 42.44 16.3166 42.5733 16.8393 42.84C17.3726 43.1067 17.7886 43.512 18.0873 44.056C18.3859 44.6 18.5353 45.288 18.5353 46.12V51H16.9993V46.296C16.9993 45.4747 16.7966 44.856 16.3913 44.44C15.9966 44.024 15.4366 43.816 14.7113 43.816C14.1673 43.816 13.6926 43.9227 13.2873 44.136C12.8819 44.3493 12.5673 44.664 12.3433 45.08C12.1299 45.496 12.0233 46.0133 12.0233 46.632V51H10.4873V39.128H12.0233V44.808L11.7193 44.2C11.9966 43.6453 12.4233 43.2133 12.9993 42.904C13.5753 42.5947 14.2473 42.44 15.0153 42.44ZM26.6419 51V49.208L26.5619 48.872V45.816C26.5619 45.1653 26.3699 44.664 25.9859 44.312C25.6125 43.9493 25.0472 43.768 24.2899 43.768C23.7885 43.768 23.2979 43.8533 22.8179 44.024C22.3379 44.184 21.9325 44.4027 21.6019 44.68L20.9619 43.528C21.3992 43.176 21.9219 42.9093 22.5299 42.728C23.1485 42.536 23.7939 42.44 24.4659 42.44C25.6285 42.44 26.5245 42.7227 27.1539 43.288C27.7832 43.8533 28.0979 44.7173 28.0979 45.88V51H26.6419ZM23.8579 51.096C23.2285 51.096 22.6739 50.9893 22.1939 50.776C21.7245 50.5627 21.3619 50.2693 21.1059 49.896C20.8499 49.512 20.7219 49.08 20.7219 48.6C20.7219 48.1413 20.8285 47.7253 21.0419 47.352C21.2659 46.9787 21.6232 46.68 22.1139 46.456C22.6152 46.232 23.2872 46.12 24.1299 46.12H26.8179V47.224H24.1939C23.4259 47.224 22.9085 47.352 22.6419 47.608C22.3752 47.864 22.2419 48.1733 22.2419 48.536C22.2419 48.952 22.4072 49.288 22.7379 49.544C23.0685 49.7893 23.5272 49.912 24.1139 49.912C24.6899 49.912 25.1912 49.784 25.6179 49.528C26.0552 49.272 26.3699 48.8987 26.5619 48.408L26.8659 49.464C26.6632 49.9653 26.3059 50.3653 25.7939 50.664C25.2819 50.952 24.6365 51.096 23.8579 51.096ZM30.9404 51V39.128H32.4764V51H30.9404ZM35.4091 51V39.128H36.9451V51H35.4091ZM43.6539 51.096C42.7472 51.096 41.9472 50.9093 41.2539 50.536C40.5712 50.1627 40.0379 49.6507 39.6539 49C39.2805 48.3493 39.0939 47.6027 39.0939 46.76C39.0939 45.9173 39.2752 45.1707 39.6379 44.52C40.0112 43.8693 40.5179 43.3627 41.1579 43C41.8085 42.6267 42.5392 42.44 43.3499 42.44C44.1712 42.44 44.8965 42.6213 45.5259 42.984C46.1552 43.3467 46.6459 43.8587 46.9979 44.52C47.3605 45.1707 47.5419 45.9333 47.5419 46.808C47.5419 46.872 47.5365 46.9467 47.5259 47.032C47.5259 47.1173 47.5205 47.1973 47.5099 47.272H40.2939V46.168H46.7099L46.0859 46.552C46.0965 46.008 45.9845 45.5227 45.7499 45.096C45.5152 44.6693 45.1899 44.3387 44.7739 44.104C44.3685 43.8587 43.8939 43.736 43.3499 43.736C42.8165 43.736 42.3419 43.8587 41.9259 44.104C41.5099 44.3387 41.1845 44.6747 40.9499 45.112C40.7152 45.5387 40.5979 46.0293 40.5979 46.584V46.84C40.5979 47.4053 40.7259 47.912 40.9819 48.36C41.2485 48.7973 41.6165 49.1387 42.0859 49.384C42.5552 49.6293 43.0939 49.752 43.7019 49.752C44.2032 49.752 44.6565 49.6667 45.0619 49.496C45.4779 49.3253 45.8405 49.0693 46.1499 48.728L46.9979 49.72C46.6139 50.168 46.1339 50.5093 45.5579 50.744C44.9925 50.9787 44.3579 51.096 43.6539 51.096ZM54.2028 42.44C54.8961 42.44 55.5041 42.5733 56.0268 42.84C56.5601 43.1067 56.9761 43.512 57.2748 44.056C57.5734 44.6 57.7228 45.288 57.7228 46.12V51H56.1868V46.296C56.1868 45.4747 55.9841 44.856 55.5788 44.44C55.1841 44.024 54.6241 43.816 53.8988 43.816C53.3548 43.816 52.8801 43.9227 52.4748 44.136C52.0694 44.3493 51.7548 44.664 51.5308 45.08C51.3174 45.496 51.2108 46.0133 51.2108 46.632V51H49.6748V42.52H51.1468V44.808L50.9068 44.2C51.1841 43.6453 51.6108 43.2133 52.1868 42.904C52.7628 42.5947 53.4348 42.44 54.2028 42.44ZM64.2774 54.2C63.4987 54.2 62.7414 54.088 62.0054 53.864C61.28 53.6507 60.688 53.3413 60.2294 52.936L60.9654 51.752C61.36 52.0933 61.8454 52.36 62.4214 52.552C62.9974 52.7547 63.6 52.856 64.2294 52.856C65.232 52.856 65.968 52.6213 66.4374 52.152C66.9067 51.6827 67.1414 50.968 67.1414 50.008V48.216L67.3014 46.536L67.2214 44.84V42.52H68.6774V49.848C68.6774 51.3413 68.304 52.44 67.5574 53.144C66.8107 53.848 65.7174 54.2 64.2774 54.2ZM64.0854 50.648C63.264 50.648 62.528 50.4773 61.8774 50.136C61.2374 49.784 60.7254 49.2987 60.3414 48.68C59.968 48.0613 59.7814 47.3467 59.7814 46.536C59.7814 45.7147 59.968 45 60.3414 44.392C60.7254 43.7733 61.2374 43.2933 61.8774 42.952C62.528 42.6107 63.264 42.44 64.0854 42.44C64.8107 42.44 65.472 42.5893 66.0694 42.888C66.6667 43.176 67.1414 43.624 67.4934 44.232C67.856 44.84 68.0374 45.608 68.0374 46.536C68.0374 47.4533 67.856 48.216 67.4934 48.824C67.1414 49.432 66.6667 49.8907 66.0694 50.2C65.472 50.4987 64.8107 50.648 64.0854 50.648ZM64.2614 49.304C64.8267 49.304 65.328 49.1867 65.7654 48.952C66.2027 48.7173 66.544 48.392 66.7894 47.976C67.0454 47.56 67.1734 47.08 67.1734 46.536C67.1734 45.992 67.0454 45.512 66.7894 45.096C66.544 44.68 66.2027 44.36 65.7654 44.136C65.328 43.9013 64.8267 43.784 64.2614 43.784C63.696 43.784 63.1894 43.9013 62.7414 44.136C62.304 44.36 61.9574 44.68 61.7014 45.096C61.456 45.512 61.3334 45.992 61.3334 46.536C61.3334 47.08 61.456 47.56 61.7014 47.976C61.9574 48.392 62.304 48.7173 62.7414 48.952C63.1894 49.1867 63.696 49.304 64.2614 49.304ZM75.3883 51.096C74.4816 51.096 73.6816 50.9093 72.9883 50.536C72.3056 50.1627 71.7723 49.6507 71.3883 49C71.0149 48.3493 70.8283 47.6027 70.8283 46.76C70.8283 45.9173 71.0096 45.1707 71.3723 44.52C71.7456 43.8693 72.2523 43.3627 72.8923 43C73.5429 42.6267 74.2736 42.44 75.0843 42.44C75.9056 42.44 76.6309 42.6213 77.2603 42.984C77.8896 43.3467 78.3803 43.8587 78.7323 44.52C79.0949 45.1707 79.2763 45.9333 79.2763 46.808C79.2763 46.872 79.2709 46.9467 79.2603 47.032C79.2603 47.1173 79.2549 47.1973 79.2443 47.272H72.0283V46.168H78.4443L77.8203 46.552C77.8309 46.008 77.7189 45.5227 77.4843 45.096C77.2496 44.6693 76.9243 44.3387 76.5083 44.104C76.1029 43.8587 75.6283 43.736 75.0843 43.736C74.5509 43.736 74.0763 43.8587 73.6603 44.104C73.2443 44.3387 72.9189 44.6747 72.6843 45.112C72.4496 45.5387 72.3323 46.0293 72.3323 46.584V46.84C72.3323 47.4053 72.4603 47.912 72.7163 48.36C72.9829 48.7973 73.3509 49.1387 73.8203 49.384C74.2896 49.6293 74.8283 49.752 75.4363 49.752C75.9376 49.752 76.3909 49.6667 76.7963 49.496C77.2123 49.3253 77.5749 49.0693 77.8843 48.728L78.7323 49.72C78.3483 50.168 77.8683 50.5093 77.2923 50.744C76.7269 50.9787 76.0923 51.096 75.3883 51.096Z" fill="white"/>
<path d="M146 31.1045C146 28.3431 143.761 26.1045 141 26.1045C138.239 26.1045 136 28.3431 136 31.1045H146ZM146 54.0448V31.1045H136V54.0448H146Z" fill="url(#paint0_linear_48_47)"/>
<path d="M159 5C159 2.23858 156.761 7.15256e-07 154 7.15256e-07C151.239 7.15256e-07 149 2.23858 149 5H159ZM159 58V5H149V58H159Z" fill="url(#paint1_linear_48_47)"/>
<path d="M172 18.4478C172 15.6864 169.761 13.4478 167 13.4478C164.239 13.4478 162 15.6864 162 18.4478H172ZM172 54.0448V18.4478H162V54.0448H172Z" fill="url(#paint2_linear_48_47)"/>
<defs>
<linearGradient id="paint0_linear_48_47" x1="141.5" y1="31.1045" x2="141.5" y2="54.0448" gradientUnits="userSpaceOnUse">
<stop stop-color="#E9B120"/>
<stop offset="0.28" stop-color="#FCE504"/>
<stop offset="1" stop-color="#292929" stop-opacity="0"/>
</linearGradient>
<linearGradient id="paint1_linear_48_47" x1="154.5" y1="5" x2="154.5" y2="58" gradientUnits="userSpaceOnUse">
<stop stop-color="#E9B120"/>
<stop offset="0.28" stop-color="#FCE504"/>
<stop offset="1" stop-color="#292929" stop-opacity="0"/>
</linearGradient>
<linearGradient id="paint2_linear_48_47" x1="167.5" y1="18.4478" x2="167.5" y2="54.0448" gradientUnits="userSpaceOnUse">
<stop stop-color="#E9B120"/>
<stop offset="0.28" stop-color="#FCE504"/>
<stop offset="1" stop-color="#292929" stop-opacity="0"/>
</linearGradient>
</defs>
</svg>
